<svg width="728" height="260" viewBox="0 0 728 260" fill="none" xmlns="http://www.w3.org/2000/svg">
    <g clip-path="url(#clip0_1_21)">
        <path d="M720.711 7.33782V0.422546H663.743V7.33782H656.827V14.2531H650.9V0.422546H593.931V7.33782H581.418V0.422546H531.365V7.33782H524.12V14.2531H517.205V21.1684H511.607V7.33782H504.691V0.422546H454.638V7.33782H447.393V14.2531H440.478V35.3249H434.88V14.2531H427.635V0.422546H370.667V7.33782H363.751V21.1684H358.153V14.2531H350.909V0.422546H293.94V14.2531H287.025V28.4097H274.182V7.33782H267.267V0.422546H217.213V7.33782H210.298V21.1684H204.7V14.2531H197.455V7.33782H190.54V0.422546H140.487V14.2531H133.571V42.2402H126.656V70.2339H120.729V14.2531H113.814V7.33782H99.983V0.422546H28.8544V7.33782H15.0239V14.2531H8.10859V35.3249H0.864014V113.043H8.10859V134.118H15.0239V141.033H21.9391V146.628H18.4815V160.459H11.5662V231.59H18.4815V245.421H25.3968V252.662H39.5566V259.577H89.6101V252.662H110.356V245.421H123.199V252.662H130.114V259.577H159.092V252.662H166.337V245.421H171.935V252.662H186.095V259.577H215.073V252.662H221.988V245.421H227.916V252.662H234.831V259.577H270.724V252.662H277.969V224.675H290.482V238.506H297.727V245.421H304.642V252.662H311.558V259.577H340.536V252.662H347.451V245.421H354.696V238.506H361.611V224.675H374.454V238.506H381.369V245.421H388.284V252.662H402.115V259.577H445.253V252.662H465.011V259.577H493.989V252.662H506.832V259.577H535.81V252.662H548.653V259.577H612.866V252.662H626.697V245.421H646.455V252.662H660.285V259.577H696.508V252.662H703.423V245.421H710.339V209.527H703.423V202.612H696.508V196.685H710.339V153.543H703.423V146.628H678.891V141.033H685.806V134.118H693.05V99.2122H699.966V92.2969H706.881V85.3817H713.796V78.4664H720.711V64.3032H727.956V7.33782H720.711Z"
              fill="#210F04"/>
        <path d="M688.934 196.026V189.111H702.764V161.117H695.849V154.202H660.944V161.117H647.113V168.032H639.868V182.196H632.953V224.017H639.868V237.847H654.028V245.088H667.859V252.004H688.934V245.088H695.849V237.847H702.764V217.101H695.849V210.186H682.019V196.026H688.934ZM678.232 196.026H671.316V189.111H678.232V196.026ZM671.316 182.192V175.277H685.476V182.192H671.316Z"
              fill="#CBFF8C"/>
        <path d="M619.123 210.186V202.941H598.048V196.026H584.217V189.111H598.048V196.026H619.123V161.117H612.207V154.202H563.142V161.117H577.302V168.032H563.142V175.277H566.599V182.192H559.684V175.28H556.227V168.032H549.311V196.026H556.227V202.941H570.386V210.186H556.227V217.101H549.311V245.088H556.227V252.004H605.292V245.088H619.123V237.847H626.038V210.186H619.123ZM594.59 217.101H580.759V210.186H594.59V217.101Z"
              fill="#CBFF8C"/>
        <path d="M528.236 210.186V202.941H535.481V189.111H542.396V175.28H535.481V168.032H528.236V161.117H521.321V154.202H465.669V161.117H458.754V245.088H472.585V252.004H486.415V245.088H493.66V230.932H500.575V237.847H507.49V245.088H514.406V252.004H528.236V245.088H535.481V237.847H542.396V224.017H535.481V217.101H521.321V210.186H528.236ZM476.042 175.28H469.127V168.032H476.042V175.28ZM510.948 189.111H497.117V182.196H510.948V189.111Z"
              fill="#CBFF8C"/>
        <path d="M437.679 196.026V189.111H444.594V182.196H451.51V168.032H444.594V154.202H402.773V161.117H395.858V168.032H388.943V175.28H382.028V189.111H374.783V217.101H382.028V230.932H388.943V237.847H395.858V245.088H409.689V252.004H437.679V245.088H444.594V237.847H451.51V224.017H444.594V210.186H430.764V196.026H437.679ZM427.306 196.026H420.062V189.111H427.306V196.026ZM413.146 168.032V175.28H406.231V168.032H413.146V161.117H434.221V168.032H413.146Z"
              fill="#CBFF8C"/>
        <path d="M367.868 168.032V154.202H339.877V161.117H332.962V189.111H326.047V182.196H319.131V161.117H312.216V154.202H284.226V202.941H291.141V217.101H298.056V230.932H305.301V237.847H312.216V245.088H319.131V252.004H332.962V245.088H339.877V237.847H347.122V230.932H354.037V217.101H360.952V202.941H367.868V182.196H374.783V168.032H367.868ZM301.514 196.026H294.599V189.111H301.514V196.026ZM357.495 168.032H350.579V175.28H343.335V168.032H350.579V161.117H357.495V168.032Z"
              fill="#CBFF8C"/>
        <path d="M270.395 175.28V161.117H263.151V154.202H242.405V161.117H235.49V245.088H242.405V252.004H263.151V245.088H270.395V217.101H277.31V175.28H270.395ZM252.778 175.28H245.862V168.032H252.778V175.28Z"
              fill="#CBFF8C"/>
        <path d="M214.414 161.117V154.202H186.424V175.28H179.509V182.196H172.593V168.032H165.678V154.202H137.688V161.117H130.772V175.28H123.857V237.847H130.772V245.088H137.688V252.004H151.518V245.088H158.763V237.847H165.678V217.101H172.593V230.932H179.509V245.088H193.669V252.004H207.499V245.088H214.414V237.847H221.33V161.117H214.414ZM148.061 175.28H141.145V168.032H148.061V175.28ZM204.041 182.192H197.126V175.277H204.041V182.192Z"
              fill="#CBFF8C"/>
        <path d="M116.613 168.032V217.101H109.697V237.847H102.782V245.088H82.0362V252.004H47.1305V245.088H32.9707V237.847H26.0554V224.017H19.1401V168.032H26.0554V196.026H32.9707V168.032H39.886V161.117H32.9707V168.032H26.0554V154.202H54.0458V161.117H60.9611V210.186H74.7916V161.117H82.0362V175.28H88.9515V161.117H82.0362V154.202H109.697V168.032H116.613Z"
              fill="#CBFF8C"/>
        <path d="M713.137 14.9117V7.9964H671.316V14.9117H664.401V35.9835H671.316V42.8988H664.401V56.7293H650.571V49.8141H643.326V35.9835H650.571V21.827H643.326V7.9964H601.505V14.9117H594.59V56.7293H601.505V70.8925H608.75V77.8078H615.665V84.723H622.58V91.6383H629.496V126.544H636.411V140.375H671.316V133.459H678.232V126.544H685.476V91.6383H692.392V84.723H699.307V77.8078H706.222V70.8925H713.137V56.7293H720.382V14.9117H713.137ZM615.665 49.8141H608.75V42.8988H601.505V28.7422H608.75V42.8988H615.665V49.8141ZM615.665 21.827H608.75V14.9117H615.665V21.827ZM685.476 42.8988H678.232V35.9835H685.476V42.8988ZM685.476 28.7422H678.232V14.9117H685.476V28.7422Z"
              fill="#CBFF8C"/>
        <path d="M580.759 42.8988V14.9117H573.844V7.9964H538.938V14.9117H531.694V21.827H524.779V56.7293H517.863V42.8988H510.948V28.7422H504.033V14.9117H497.117V7.9964H462.212V14.9117H454.967V21.827H448.052V42.8988H441.137V126.544H448.052V140.375H482.958V133.459H489.873V126.544H497.117V91.6383H504.033V98.5536H510.948V112.713H517.863V126.544H524.779V133.459H531.694V140.375H566.599V133.459H573.844V119.629H580.759V91.6383H587.675V42.8988H580.759ZM462.212 56.7293H454.967V49.8141H462.212V56.7293ZM476.042 28.7422H469.127V42.8988H462.212V28.7422H469.127V21.827H476.042V28.7422ZM545.854 35.9835H538.938V21.827H545.854V35.9835Z"
              fill="#CBFF8C"/>
        <path d="M420.062 21.827V7.9964H378.241V14.9117H371.325V63.6446H364.41V49.8141H357.495V28.7422H350.579V21.827H343.335V7.9964H301.514V21.827H294.599V35.9835H287.683V133.459H294.599V140.375H329.504V133.459H336.42V119.629H343.335V91.6383H350.579V105.469H357.495V119.629H364.41V126.544H371.325V133.459H378.241V140.375H413.146V133.459H420.062V112.713H427.306V21.827H420.062ZM308.758 56.7293H301.514V49.8141H308.758V56.7293ZM315.674 35.9835H308.758V42.8988H301.514V35.9835H308.758V21.827H315.674V35.9835ZM385.485 49.8141H378.241V42.8988H385.485V49.8141ZM392.4 28.7422H385.485V35.9835H378.241V28.7422H385.485V21.827H392.4V28.7422Z"
              fill="#CBFF8C"/>
        <path d="M266.608 35.9835V14.9117H259.693V7.9964H224.787V14.9117H217.872V28.7422H210.957V91.6383H197.126V21.827H189.881V14.9117H182.966V7.9964H148.061V21.827H141.145V49.8141H134.23V77.8078H141.145V112.713H148.061V126.544H154.976V133.459H169.136V140.375H238.947V133.459H252.778V126.544H259.693V112.713H266.608V91.6383H273.853V35.9835H266.608ZM154.976 63.6446H148.061V56.7293H154.976V63.6446ZM162.22 28.7422H154.976V49.8141H148.061V28.7422H154.976V21.827H162.22V28.7422ZM238.947 21.827H231.702V49.8141H224.787V21.827H231.702V14.9117H238.947V21.827Z"
              fill="#CBFF8C"/>
        <path d="M120.07 84.723V77.8078H113.155V70.8925H99.3244V63.6446H106.24V56.7293H113.155V21.827H106.24V14.9117H92.4091V7.9964H36.4283V14.9117H22.5977V21.827H15.6824V42.8988H8.43787V105.469H15.6824V126.544H22.5977V133.459H29.513V140.375H99.3244V133.459H113.155V126.544H120.07V112.713H127.315V84.723H120.07ZM29.513 56.7293H22.5977V49.8141H29.513V56.7293ZM50.5881 28.7422H36.4283V42.8988H29.513V28.7422H36.4283V21.827H50.5881V28.7422ZM71.334 112.713H57.5034V91.6383H71.334V112.713ZM71.334 49.8141H64.4187V56.7293H57.5034V35.9835H64.4187V42.8988H71.334V49.8141Z"
              fill="#CBFF8C"/>
    </g>
    <defs>
        <clipPath id="clip0_1_21">
            <rect width="727.092" height="259.155" fill="white" transform="translate(0.864014 0.422546)"/>
        </clipPath>
    </defs>
</svg>
