<svg width="713" height="244" viewBox="0 0 713 244" fill="none" xmlns="http://www.w3.org/2000/svg">
    <path d="M680.934 188.026V181.111H694.764V153.117H687.849V146.202H652.944V153.117H639.113V160.032H631.868V174.196H624.953V216.017H631.868V229.847H646.028V237.088H659.859V244.004H680.934V237.088H687.849V229.847H694.764V209.101H687.849V202.186H674.019V188.026H680.934ZM670.232 188.026H663.316V181.111H670.232V188.026ZM663.316 174.192V167.277H677.476V174.192H663.316Z"
          fill="#CBFF8C"/>
    <path d="M611.123 202.186V194.941H590.048V188.026H576.217V181.111H590.048V188.026H611.123V153.117H604.207V146.202H555.142V153.117H569.302V160.032H555.142V167.277H558.599V174.192H551.684V167.28H548.227V160.032H541.311V188.026H548.227V194.941H562.386V202.186H548.227V209.101H541.311V237.088H548.227V244.004H597.292V237.088H611.123V229.847H618.038V202.186H611.123ZM586.59 209.101H572.759V202.186H586.59V209.101Z"
          fill="#CBFF8C"/>
    <path d="M520.236 202.186V194.941H527.481V181.111H534.396V167.28H527.481V160.032H520.236V153.117H513.321V146.202H457.669V153.117H450.754V237.088H464.585V244.004H478.415V237.088H485.66V222.932H492.575V229.847H499.49V237.088H506.406V244.004H520.236V237.088H527.481V229.847H534.396V216.017H527.481V209.101H513.321V202.186H520.236ZM468.042 167.28H461.127V160.032H468.042V167.28ZM502.948 181.111H489.117V174.196H502.948V181.111Z"
          fill="#CBFF8C"/>
    <path d="M429.679 188.026V181.111H436.594V174.196H443.51V160.032H436.594V146.202H394.773V153.117H387.858V160.032H380.943V167.28H374.028V181.111H366.783V209.101H374.028V222.932H380.943V229.847H387.858V237.088H401.689V244.004H429.679V237.088H436.594V229.847H443.51V216.017H436.594V202.186H422.764V188.026H429.679ZM419.306 188.026H412.062V181.111H419.306V188.026ZM405.146 160.032V167.28H398.231V160.032H405.146V153.117H426.221V160.032H405.146Z"
          fill="#CBFF8C"/>
    <path d="M359.868 160.032V146.202H331.877V153.117H324.962V181.111H318.047V174.196H311.131V153.117H304.216V146.202H276.226V194.941H283.141V209.101H290.056V222.932H297.301V229.847H304.216V237.088H311.131V244.004H324.962V237.088H331.877V229.847H339.122V222.932H346.037V209.101H352.952V194.941H359.868V174.196H366.783V160.032H359.868ZM293.514 188.026H286.599V181.111H293.514V188.026ZM349.495 160.032H342.579V167.28H335.335V160.032H342.579V153.117H349.495V160.032Z"
          fill="#CBFF8C"/>
    <path d="M262.395 167.28V153.117H255.151V146.202H234.405V153.117H227.49V237.088H234.405V244.004H255.151V237.088H262.395V209.101H269.31V167.28H262.395ZM244.778 167.28H237.862V160.032H244.778V167.28Z"
          fill="#CBFF8C"/>
    <path d="M206.414 153.117V146.202H178.424V167.28H171.509V174.196H164.593V160.032H157.678V146.202H129.688V153.117H122.772V167.28H115.857V229.847H122.772V237.088H129.688V244.004H143.518V237.088H150.763V229.847H157.678V209.101H164.593V222.932H171.509V237.088H185.669V244.004H199.499V237.088H206.414V229.847H213.33V153.117H206.414ZM140.061 167.28H133.145V160.032H140.061V167.28ZM196.041 174.192H189.126V167.277H196.041V174.192Z"
          fill="#CBFF8C"/>
    <path d="M108.613 160.032V209.101H101.697V229.847H94.7821V237.088H74.0362V244.004H39.1305V237.088H24.9707V229.847H18.0554V216.017H11.1401V160.032H18.0554V188.026H24.9707V160.032H31.886V153.117H24.9707V160.032H18.0554V146.202H46.0458V153.117H52.9611V202.186H66.7916V153.117H74.0362V167.28H80.9515V153.117H74.0362V146.202H101.697V160.032H108.613Z"
          fill="#CBFF8C"/>
    <path d="M705.137 6.91168V-0.00360107H663.316V6.91168H656.401V27.9835H663.316V34.8988H656.401V48.7293H642.571V41.8141H635.326V27.9835H642.571V13.827H635.326V-0.00360107H593.505V6.91168H586.59V48.7293H593.505V62.8925H600.75V69.8078H607.665V76.723H614.58V83.6383H621.496V118.544H628.411V132.375H663.316V125.459H670.232V118.544H677.476V83.6383H684.392V76.723H691.307V69.8078H698.222V62.8925H705.137V48.7293H712.382V6.91168H705.137ZM607.665 41.8141H600.75V34.8988H593.505V20.7422H600.75V34.8988H607.665V41.8141ZM607.665 13.827H600.75V6.91168H607.665V13.827ZM677.476 34.8988H670.232V27.9835H677.476V34.8988ZM677.476 20.7422H670.232V6.91168H677.476V20.7422Z"
          fill="#CBFF8C"/>
    <path d="M572.759 34.8988V6.91168H565.844V-0.00360107H530.938V6.91168H523.694V13.827H516.779V48.7293H509.863V34.8988H502.948V20.7422H496.033V6.91168H489.117V-0.00360107H454.212V6.91168H446.967V13.827H440.052V34.8988H433.137V118.544H440.052V132.375H474.958V125.459H481.873V118.544H489.117V83.6383H496.033V90.5536H502.948V104.713H509.863V118.544H516.779V125.459H523.694V132.375H558.599V125.459H565.844V111.629H572.759V83.6383H579.675V34.8988H572.759ZM454.212 48.7293H446.967V41.8141H454.212V48.7293ZM468.042 20.7422H461.127V34.8988H454.212V20.7422H461.127V13.827H468.042V20.7422ZM537.854 27.9835H530.938V13.827H537.854V27.9835Z"
          fill="#CBFF8C"/>
    <path d="M412.062 13.827V-0.00360107H370.241V6.91168H363.325V55.6446H356.41V41.8141H349.495V20.7422H342.579V13.827H335.335V-0.00360107H293.514V13.827H286.599V27.9835H279.683V125.459H286.599V132.375H321.504V125.459H328.42V111.629H335.335V83.6383H342.579V97.4689H349.495V111.629H356.41V118.544H363.325V125.459H370.241V132.375H405.146V125.459H412.062V104.713H419.306V13.827H412.062ZM300.758 48.7293H293.514V41.8141H300.758V48.7293ZM307.674 27.9835H300.758V34.8988H293.514V27.9835H300.758V13.827H307.674V27.9835ZM377.485 41.8141H370.241V34.8988H377.485V41.8141ZM384.4 20.7422H377.485V27.9835H370.241V20.7422H377.485V13.827H384.4V20.7422Z"
          fill="#CBFF8C"/>
    <path d="M258.608 27.9835V6.91168H251.693V-0.00360107H216.787V6.91168H209.872V20.7422H202.957V83.6383H189.126V13.827H181.881V6.91168H174.966V-0.00360107H140.061V13.827H133.145V41.8141H126.23V69.8078H133.145V104.713H140.061V118.544H146.976V125.459H161.136V132.375H230.947V125.459H244.778V118.544H251.693V104.713H258.608V83.6383H265.853V27.9835H258.608ZM146.976 55.6446H140.061V48.7293H146.976V55.6446ZM154.22 20.7422H146.976V41.8141H140.061V20.7422H146.976V13.827H154.22V20.7422ZM230.947 13.827H223.702V41.8141H216.787V13.827H223.702V6.91168H230.947V13.827Z"
          fill="#CBFF8C"/>
    <path d="M112.07 76.723V69.8078H105.155V62.8925H91.3244V55.6446H98.2396V48.7293H105.155V13.827H98.2396V6.91168H84.4091V-0.00360107H28.4283V6.91168H14.5977V13.827H7.68244V34.8988H0.437866V97.4689H7.68244V118.544H14.5977V125.459H21.513V132.375H91.3244V125.459H105.155V118.544H112.07V104.713H119.315V76.723H112.07ZM21.513 48.7293H14.5977V41.8141H21.513V48.7293ZM42.5881 20.7422H28.4283V34.8988H21.513V20.7422H28.4283V13.827H42.5881V20.7422ZM63.334 104.713H49.5034V83.6383H63.334V104.713ZM63.334 41.8141H56.4187V48.7293H49.5034V27.9835H56.4187V34.8988H63.334V41.8141Z"
          fill="#CBFF8C"/>
</svg>
