<svg width="51" height="52" viewBox="0 0 51 52" fill="none" xmlns="http://www.w3.org/2000/svg">
    <path id="Vector"
          d="M7.00217 0.705933H11.4163V2.91299H13.6234V7.29807H15.8014V2.91299H18.0084V0.705933H24.6006V7.29807H22.4226V9.50513H20.2155V11.7122H18.0084V13.8902H22.4226V11.7122H33.3998V13.8902H35.6068V18.3043H33.3998V20.5114H31.2218V22.6894H29.0147V24.8965H26.8076V27.1035H29.0147V24.8965H33.3998V22.6894H35.6068V20.5114H40.021V22.6894H42.199V24.8965H40.021V27.1035H37.8139V29.3106H35.6068V31.4886H33.3998V33.6957H37.8139V31.4886H40.021V29.3106H42.199V27.1035H44.406V31.4886H46.6131V38.1098H48.8201V44.7019H50.9982V51.2941H42.199V49.087H35.6068V46.909H31.2218V44.7019H29.0147V42.4949H24.6006V40.2878H22.4226V38.1098H18.0084V35.9027H15.8014V33.6957H13.6234V31.4886H11.4163V22.6894H13.6234V18.3043H15.8014V16.0973H13.6234V18.3043H9.20923V20.5114H7.00217V22.6894H2.61709V18.3043H0.410034V16.0973H2.61709V13.8902H11.4163V11.7122H7.00217V9.50513H4.82415V7.29807H2.61709V5.09101H4.82415V2.91299H7.00217V0.705933Z"
          fill="#CBFF8C"/>
</svg>
