<svg width="45" height="43" viewBox="0 0 45 43" fill="none" xmlns="http://www.w3.org/2000/svg">
    <path id="Vector" fill-rule="evenodd" clip-rule="evenodd"
          d="M22.1487 0.0327148H23.6713V1.54263H25.1939V4.60272H26.6964V7.64268H28.219V10.7028H29.7416V13.7427H35.8118V15.2728H44.9072V19.8428H43.4046V21.3728H40.3595V24.4329H38.8369V25.9429H37.3344V27.4729H35.8118V36.633H37.3344V42.7331H32.7667V41.2031H29.7416V39.673H26.6964V38.143H23.6713V36.633H22.1487V38.143H19.1236V39.673H16.0785V41.2031H13.0534V42.7331H8.48564V36.633H10.0082V27.4729H8.48564V25.9429H6.9831V24.4329H5.46053V21.3728H2.41538V19.8428H0.912842V15.2728H10.0082V13.7427H16.0785V10.7028H17.601V7.64268H19.1236V4.60272H20.6262V1.54263H22.1487V0.0327148Z"
          fill="#210F04"/>
</svg>
