<svg width="33" height="52" viewBox="0 0 33 52" fill="none" xmlns="http://www.w3.org/2000/svg">
    <path id="Vector" fill-rule="evenodd" clip-rule="evenodd"
          d="M18.8874 0.281982H13.9326V1.93357H12.3028V5.21501H10.6512V6.8666H8.99961V10.148H7.34802V15.1028H5.71816V24.9689H2.41499V28.272H0.763401V39.7897H2.41499V41.4413H7.34802V39.7897H8.99961V38.1381H13.9326V39.7897H18.8874V38.1381H23.8204V39.7897H25.472V41.4413H30.4051V38.1381H32.0566V28.272H30.4051V24.9689H27.1019V15.1028H25.472V10.148H23.8204V6.8666H22.1688V5.21501H20.5173V1.93357H18.8874V0.281982ZM18.8874 11.7996V13.4512H20.5173V20.0358H18.8874V21.6874H15.5842V20.0358H12.3028V13.4512H13.9326V11.7996H18.8874ZM18.8874 15.1028H13.9326V18.3843H18.8874V15.1028ZM22.1688 41.4413H20.5173V43.0711H12.3028V41.4413H10.6512V48.0259H13.9326V49.6558H15.5842V51.3073H17.2358V49.6558H18.8874V48.0259H22.1688V41.4413Z"
          fill="#210F04"/>
</svg>
