<svg width="50" height="52" viewBox="0 0 50 52" fill="none" xmlns="http://www.w3.org/2000/svg">
<path id="Vector" fill-rule="evenodd" clip-rule="evenodd" d="M23.0334 0.281982H34.3183V2.17735H38.0965V4.07273H39.9608V7.83853H41.8499V19.1858H39.9608V21.0812H38.0965V22.9516H36.2074V24.847H32.4292V26.7424H24.8977V24.847H21.1443V22.9516H19.2552V21.0812H17.3661V17.2904H15.5018V7.83853H17.3661V5.9681H19.2552V2.17735H23.0334V0.281982ZM30.565 28.6377H34.3183V34.2989H32.4292V36.1943H24.8977V38.0647H36.2074V36.1943H39.9608V34.2989H43.739V32.4035H49.3814V36.1943H47.4923V38.0647H45.6281V39.9601H41.8499V41.8555H39.9608V43.7508H34.3183V45.6213H15.5018V47.5166H13.6127V49.412H9.83453V51.3074H7.97028V49.412H6.08118V47.5166H4.19207V45.6213H2.30297V43.7508H0.438721V41.8555H2.30297V39.9601H4.19207V36.1943H6.08118V34.2989H7.97028V32.4035H15.5018V30.5082H30.565V28.6377Z" fill="#210F04"/>
</svg>
