<svg width="46" height="47" viewBox="0 0 46 47" fill="none" xmlns="http://www.w3.org/2000/svg">
<path id="Vector" fill-rule="evenodd" clip-rule="evenodd" d="M18.9655 0.455933H26.8547V2.04214H31.6133V3.60747H34.7649V5.19367H37.9373V6.77987H39.5026V8.36607H41.0888V11.5176H42.675V13.1038H44.2612V17.8415H45.8266V30.4894H44.2612V33.6618H42.675V36.8134H41.0888V38.3996H39.5026V39.9858H37.9373V41.5511H36.3511V43.1373H34.7649V44.7235H31.6133V46.3097H14.2069V44.7235H11.0553V43.1373H9.46913V41.5511H6.31759V39.9858H4.73139V36.8134H3.14519V35.2272H1.55898V30.4894H-0.00634766V28.9032H1.55898V27.3379H-0.00634766V16.2553H1.55898V17.8415H3.14519V22.5793H9.46913V16.2553H11.0553V14.69H4.73139V17.8415H3.14519V16.2553H1.55898V13.1038H3.14519V9.93141H4.73139V8.36607H6.31759V6.77987H7.88292V5.19367H11.0553V3.60747H14.2069V2.04214H18.9655V0.455933ZM14.2069 5.19367V6.77987H11.0553V8.36607H9.46913V9.93141H7.88292V11.5176H14.2069V9.93141H12.6415V8.36607H14.2069V6.77987H15.7931V5.19367H14.2069ZM23.7032 5.19367V8.36607H25.2894V9.93141H23.7032V11.5176H30.0271V9.93141H28.4409V8.36607H26.8547V6.77987H25.2894V5.19367H23.7032ZM30.0271 5.19367V6.77987H31.6133V9.93141H33.1787V11.5176H37.9373V9.93141H36.3511V8.36607H34.7649V6.77987H31.6133V5.19367H30.0271ZM18.9655 6.77987V8.36607H17.3793V9.93141H15.7931V11.5176H17.3793V13.1038H18.9655V11.5176H20.5308V6.77987H18.9655ZM36.3511 13.1038V14.69H34.7649V16.2553H36.3511V22.5793H42.675V17.8415H41.0888V14.69H37.9373V13.1038H36.3511ZM12.6415 14.69V22.5793H20.5308V14.69H12.6415ZM23.7032 14.69V19.4277H25.2894V21.014H23.7032V22.5793H33.1787V16.2553H31.6133V14.69H23.7032ZM31.6133 24.1655V25.7517H23.7032V30.4894H25.2894V32.0756H23.7032V33.6618H31.6133V32.0756H33.1787V24.1655H31.6133ZM41.0888 24.1655V25.7517H36.3511V32.0756H34.7649V33.6618H41.0888V30.4894H42.675V24.1655H41.0888ZM3.14519 25.7517V30.4894H4.73139V33.6618H11.0553V32.0756H9.46913V25.7517H3.14519ZM11.0553 25.7517V27.3379H12.6415V32.0756H14.2069V33.6618H20.5308V25.7517H11.0553ZM12.6415 35.2272V36.8134H6.31759V38.3996H9.46913V39.9858H11.0553V41.5511H14.2069V43.1373H15.7931V41.5511H17.3793V39.9858H18.9655V43.1373H20.5308V36.8134H15.7931V38.3996H17.3793V39.9858H15.7931V41.5511H14.2069V39.9858H12.6415V36.8134H14.2069V35.2272H12.6415ZM31.6133 35.2272V36.8134H33.1787V38.3996H31.6133V41.5511H30.0271V43.1373H31.6133V41.5511H33.1787V39.9858H36.3511V38.3996H37.9373V36.8134H33.1787V35.2272H31.6133ZM23.7032 36.8134V39.9858H25.2894V41.5511H23.7032V43.1373H25.2894V41.5511H26.8547V39.9858H28.4409V38.3996H30.0271V36.8134H23.7032Z" fill="#210F04"/>
</svg>
