<svg width="35" height="26" viewBox="0 0 35 26" fill="none" xmlns="http://www.w3.org/2000/svg">
    <path id="Vector" fill-rule="evenodd" clip-rule="evenodd"
          d="M7.88046 0.411987H12.9157V1.67494H21.7231V0.411987H26.7583V1.67494H29.2842V2.93789H30.5305V5.44718H31.7935V9.23603H33.0564V14.2712H34.3194V20.5527H33.0564V21.8157H31.7935V23.0787H29.2842V24.3416H26.7583V25.5879H25.4953V24.3416H24.249V21.8157H25.4953V20.5527H24.249V21.8157H10.3897V20.5527H7.88046V21.8157H10.3897V24.3416H9.14341V25.5879H7.88046V24.3416H5.35456V23.0787H2.84527V21.8157H1.58232V20.5527H0.319366V13.0083H1.58232V9.23603H2.84527V5.44718H4.10822V2.93789H5.35456V1.67494H7.88046V0.411987ZM10.3897 10.4824V11.7453H9.14341V16.7805H14.1786V11.7453H12.9157V10.4824H10.3897ZM20.4601 10.4824V16.7805H25.4953V11.7453H24.249V10.4824H20.4601Z"
          fill="#CBFF8C"/>
</svg>
