<svg width="35" height="31" viewBox="0 0 35 31" fill="none" xmlns="http://www.w3.org/2000/svg">
<path id="Vector" fill-rule="evenodd" clip-rule="evenodd" d="M31.9903 0.917969H34.3151V6.75387H33.1604V11.4195H31.9903V17.2554H30.8202V23.0759H29.6501V27.7415H28.4954V30.0821H27.3253V28.9118H24.9851V27.7415H23.8304V26.5867H21.4902V25.4164H20.3201V24.2462H19.1654V23.0759H17.9953V24.2462H16.8252V25.4164H15.6551V26.5867H14.5004V27.7415H13.3303V19.5805H14.5004V18.4103H15.6551V17.2554H16.8252V16.0851H17.9953V14.9149H20.3201V13.7446H21.4902V12.5898H22.6603V11.4195H23.8304V10.2492H24.9851V9.07899H26.1552V7.92413H27.3253V6.75387H26.1552V7.92413H23.8304V9.07899H22.6603V10.2492H20.3201V11.4195H17.9953V12.5898H16.8252V13.7446H14.5004V14.9149H13.3303V16.0851H10.9901V17.2554H5.17037V16.0851H1.66007V14.9149H0.505371V13.7446H1.66007V12.5898H4.00027V11.4195H7.49517V10.2492H9.83537V9.07899H13.3303V7.92413H16.8252V6.75387H19.1654V5.58361H22.6603V4.41335H24.9851V3.25849H28.4954V2.08823H31.9903V0.917969Z" fill="#CBFF8C"/>
</svg>
