<svg width="35" height="30" viewBox="0 0 35 30" fill="none" xmlns="http://www.w3.org/2000/svg">
<path id="Vector" d="M21.8139 0.408691H25.5861V1.67164H28.112V2.91798H31.8843V4.18093H30.6213V5.44388H31.8843V4.18093H34.4102V5.44388H33.1472V6.70683H31.8843V7.95317H30.6213V14.2513H29.375V18.0235H28.112V20.5495H26.8491V21.8124H25.5861V23.0587H24.3398V24.3217H23.0768V25.5846H20.5509V26.8476H19.3046V28.0939H14.2694V29.3569H6.7083V28.0939H2.93606V26.8476H0.410156V25.5846H6.7083V24.3217H9.2342V23.0587H7.97125V21.8124H5.44535V20.5495H4.19901V18.0235H5.44535V16.7772H2.93606V15.5143H1.67311V11.742H4.19901V10.4791H2.93606V9.21612H1.67311V6.70683H0.410156V5.44388H1.67311V2.91798H2.93606V4.18093H4.19901V5.44388H6.7083V6.70683H9.2342V7.95317H11.7435V9.21612H16.7787V4.18093H18.0416V2.91798H19.3046V1.67164H21.8139V0.408691ZM31.8843 1.67164H33.1472V2.91798H31.8843V1.67164ZM0.410156 10.4791H1.67311V11.742H0.410156V10.4791Z" fill="#CBFF8C"/>
</svg>
