<svg width="28" height="35" viewBox="0 0 28 35" fill="none" xmlns="http://www.w3.org/2000/svg">
<path id="Vector" d="M10.3073 0.882812H19.6898V2.04401H22.0432V3.2207H23.2044V4.39738H24.3811V5.57407H25.5578V7.91196H26.7345V10.2653H27.8957V34.8828H2.10149V33.7216H0.924805V32.5449H2.10149V30.1916H0.924805V29.0304H2.10149V27.8537H0.924805V26.677H2.10149V25.5003H0.924805V24.3391H2.10149V23.1624H0.924805V19.6478H2.10149V18.4712H0.924805V14.9566H2.10149V13.7799H0.924805V12.6032H2.10149V7.91196H3.27817V6.73527H4.43938V4.39738H5.61606V3.2207H7.96943V2.04401H10.3073V0.882812ZM11.484 2.04401V3.2207H9.13063V4.39738H6.79275V5.57407H5.61606V7.91196H4.43938V9.08864H3.27817V17.2945H4.43938V18.4712H3.27817V20.809H4.43938V21.9857H5.61606V23.1624H6.79275V21.9857H5.61606V20.809H4.43938V18.4712H5.61606V19.6478H6.79275V20.809H7.96943V19.6478H6.79275V18.4712H7.96943V14.9566H9.13063V18.4712H10.3073V14.9566H11.484V16.1178H12.6607V14.9566H13.8219V13.7799H14.9986V11.4265H13.8219V10.2653H16.1753V12.6032H17.3519V14.9566H18.5131V12.6032H17.3519V10.2653H18.5131V11.4265H20.8665V10.2653H18.5131V5.57407H19.6898V9.08864H22.0432V10.2653H23.2044V9.08864H22.0432V7.91196H20.8665V6.73527H23.2044V7.91196H24.3811V6.73527H23.2044V5.57407H20.8665V3.2207H18.5131V2.04401H11.484ZM16.1753 6.73527H17.3519V7.91196H16.1753V6.73527ZM13.8219 7.91196H14.9986V9.08864H13.8219V7.91196ZM11.484 9.08864H12.6607V10.2653H11.484V9.08864ZM16.1753 9.08864H17.3519V10.2653H16.1753V9.08864ZM24.3811 10.2653V11.4265H25.5578V10.2653H24.3811ZM9.13063 11.4265H10.3073V12.6032H9.13063V11.4265ZM11.484 11.4265H12.6607V12.6032H11.484V11.4265ZM22.0432 11.4265V12.6032H23.2044V11.4265H22.0432ZM5.61606 12.6032H6.79275V13.7799H5.61606V12.6032ZM10.3073 12.6032H11.484V13.7799H10.3073V12.6032ZM12.6607 12.6032H13.8219V13.7799H12.6607V12.6032ZM19.6898 12.6032V13.7799H20.8665V12.6032H19.6898ZM6.79275 13.7799H7.96943V14.9566H6.79275V13.7799ZM9.13063 13.7799H10.3073V14.9566H9.13063V13.7799ZM11.484 13.7799H12.6607V14.9566H11.484V13.7799ZM23.2044 13.7799V14.9566H24.3811V13.7799H23.2044ZM4.43938 14.9566H5.61606V16.1178H4.43938V14.9566ZM14.9986 14.9566V16.1178H13.8219V17.2945H14.9986V18.4712H16.1753V17.2945H14.9986V16.1178H16.1753V14.9566H14.9986ZM5.61606 16.1178H6.79275V18.4712H5.61606V16.1178ZM18.5131 16.1178V17.2945H19.6898V16.1178H18.5131ZM11.484 17.2945V18.4712H12.6607V17.2945H11.484ZM9.13063 19.6478V20.809H10.3073V19.6478H9.13063ZM11.484 20.809V21.9857H12.6607V20.809H11.484ZM7.96943 21.9857V23.1624H9.13063V21.9857H7.96943ZM16.1753 21.9857V23.1624H17.3519V21.9857H16.1753ZM12.6607 23.1624V24.3391H13.8219V23.1624H12.6607ZM4.43938 24.3391V25.5003H5.61606V24.3391H4.43938ZM5.61606 26.677V27.8537H6.79275V26.677H5.61606Z" fill="#CBFF8C"/>
</svg>
