<svg width="35" height="34" viewBox="0 0 35 34" fill="none" xmlns="http://www.w3.org/2000/svg">
    <path id="Vector"
          d="M12.9434 0H15.4527V1.26295H17.9786V2.5259H20.4879V3.78885H23.0138V5.03519H24.2768V15.1056H23.0138V16.3685H20.4879V6.29814H17.9786V7.56109H19.2416V17.6315H17.9786V16.3685H16.7157V18.8944H20.4879V17.6315H23.0138V16.3685H25.5231V13.8592H26.7861V15.1056H28.049V13.8592H26.7861V12.5963H25.5231V10.0704H26.7861V8.82404H29.312V7.56109H31.8212V10.0704H30.5583V11.3333H31.8212V13.8592H30.5583V15.1056H29.312V16.3685H31.8212V17.6315H33.0842V18.8944H31.8212V20.1407H29.312V21.4037H26.7861V22.6666H25.5231V23.9296H26.7861V22.6666H29.312V21.4037H31.8212V20.1407H34.3471V23.9296H33.0842V25.1759H30.5583V26.4389H28.049V27.7018H25.5231V28.9648H23.0138V27.7018H20.4879V26.4389H19.2416V34H17.9786V32.737H15.4527V31.4741H12.9434V30.2111H10.4175V28.9648H12.9434V27.7018H15.4527V26.4389H17.9786V23.9296H16.7157V25.1759H15.4527V26.4389H12.9434V27.7018H10.4175V28.9648H7.90826V30.2111H6.64531V20.1407H7.90826V18.8944H6.64531V20.1407H5.38235V28.9648H2.87307V27.7018H1.61012V17.6315H2.87307V16.3685H5.38235V15.1056H6.64531V13.8592H9.17121V12.5963H14.2064V13.8592H15.4527V15.1056H12.9434V16.3685H10.4175V17.6315H9.17121V18.8944H10.4175V17.6315H12.9434V16.3685H15.4527V15.1056H16.7157V13.8592H15.4527V12.5963H14.2064V11.3333H9.17121V12.5963H4.13602V11.3333H1.61012V8.82404H4.13602V7.56109H6.64531V6.29814H9.17121V2.5259H10.4175V3.78885H12.9434V5.03519H15.4527V6.29814H16.7157V5.03519H15.4527V3.78885H12.9434V2.5259H10.4175V1.26295H12.9434V0ZM25.5231 3.78885H26.7861V5.03519H29.312V7.56109H26.7861V8.82404H25.5231V3.78885ZM0.347168 11.3333H1.61012V12.5963H4.13602V13.8592H5.38235V15.1056H2.87307V16.3685H0.347168V11.3333ZM16.7157 20.1407V22.6666H17.9786V21.4037H19.2416V22.6666H21.7509V23.9296H24.2768V22.6666H21.7509V21.4037H19.2416V20.1407H16.7157ZM20.4879 28.9648H23.0138V30.2111H24.2768V32.737H21.7509V34H20.4879V28.9648Z"
          fill="#CBFF8C"/>
</svg>
