<svg width="33" height="34" viewBox="0 0 33 34" fill="none" xmlns="http://www.w3.org/2000/svg">
    <path id="Vector"
          d="M11.3655 0.980652H21.3156V2.07487H24.6274V3.18368H25.7362V4.29249H26.8305V5.40129H29.0481V7.60432H30.1569V8.71313H31.2511V10.9162H32.3599V23.0839H31.2511V25.2869H30.1569V27.5045H29.0481V28.5987H27.9393V29.7075H26.8305V30.8163H24.6274V31.9251H22.4098V33.0194H20.2068V24.1781H19.098V23.0839H23.5186V21.9751H25.7362V19.7574H26.8305V13.1338H25.7362V7.60432H22.4098V8.71313H21.3156V9.82194H20.2068V8.71313H10.2567V7.60432H6.94487V13.1338H5.83606V19.7574H6.94487V20.8662H8.05368V21.9751H9.1479V23.0839H13.5685V24.1781H12.4743V25.2869H11.3655V26.3957H9.1479V25.2869H8.05368V24.1781H6.94487V23.0839H4.72725V24.1781H5.83606V25.2869H6.94487V27.5045H9.1479V28.5987H11.3655V27.5045H12.4743V33.0194H10.2567V31.9251H8.05368V30.8163H5.83606V29.7075H4.72725V28.5987H3.63303V27.5045H2.52423V25.2869H1.41542V23.0839H0.30661V10.9162H1.41542V8.71313H2.52423V6.49551H3.63303V5.40129H4.72725V4.29249H6.94487V3.18368H8.05368V2.07487H11.3655V0.980652Z"
          fill="#CBFF8C"/>
</svg>
