<svg width="31" height="30" viewBox="0 0 31 30" fill="none" xmlns="http://www.w3.org/2000/svg">
    <path id="Vector"
          d="M0.347397 0.597839H9.21251V1.69501H10.3243V2.8068H11.4361V3.9186H12.5333V6.12757H13.6451V7.23936H14.7569V8.35116H15.8687V9.46296H16.9658V8.35116H18.0776V7.23936H19.1894V6.12757H20.3012V5.0304H21.3984V3.9186H22.5102V2.8068H23.622V0.597839H29.1663V1.69501H28.0545V2.8068H26.9427V3.9186H25.831V5.0304H24.7338V6.12757H23.622V8.35116H22.5102V9.46296H21.3984V10.5601H20.3012V11.6719H19.1894V13.8955H20.3012V16.1045H21.3984V17.2163H22.5102V18.3281H23.622V20.537H24.7338V21.6488H25.831V22.7606H26.9427V24.9696H28.0545V26.0814H29.1663V27.1932H30.2635V29.4022H21.3984V28.2904H20.3012V27.1932H19.1894V26.0814H18.0776V23.8578H16.9658V22.7606H15.8687V21.6488H14.7569V20.537H13.6451V19.4252H12.5333V21.6488H11.4361V22.7606H10.3243V23.8578H9.21251V24.9696H8.10072V26.0814H7.00355V27.1932H5.89175V28.2904H4.77996V29.4022H0.347397V28.2904H1.45919V27.1932H2.57099V26.0814H3.66816V24.9696H4.77996V23.8578H5.89175V21.6488H7.00355V20.537H8.10072V19.4252H9.21251V18.3281H10.3243V17.2163H11.4361V14.9927H10.3243V13.8955H9.21251V12.7837H8.10072V11.6719H7.00355V9.46296H5.89175V8.35116H4.77996V7.23936H3.66816V5.0304H2.57099V3.9186H1.45919V2.8068H0.347397V0.597839ZM5.89175 3.9186V5.0304H7.00355V7.23936H8.10072V8.35116H9.21251V9.46296H10.3243V10.5601H11.4361V12.7837H12.5333V13.8955H13.6451V14.9927H14.7569V16.1045H15.8687V18.3281H16.9658V19.4252H18.0776V21.6488H19.1894V22.7606H20.3012V23.8578H21.3984V24.9696H22.5102V26.0814H24.7338V24.9696H23.622V23.8578H22.5102V21.6488H21.3984V20.537H20.3012V19.4252H19.1894V17.2163H18.0776V16.1045H16.9658V14.9927H15.8687V12.7837H14.7569V11.6719H13.6451V10.5601H12.5333V9.46296H11.4361V7.23936H10.3243V6.12757H9.21251V5.0304H8.10072V3.9186H5.89175Z"
          fill="#CBFF8C"/>
</svg>
